<svg width="76" height="80" viewBox="0 0 76 80" fill="none" xmlns="http://www.w3.org/2000/svg">
<path d="M74.8506 18.4775C74.8452 18.4437 74.8464 18.4081 74.8381 18.375C74.8151 18.2839 74.781 18.1963 74.7366 18.1144C74.7217 18.0862 74.6992 18.0637 74.6814 18.0375C74.6495 17.9847 74.6133 17.935 74.5733 17.8887C74.5489 17.8625 74.5181 17.8444 74.4914 17.8206C74.4517 17.7821 74.4092 17.747 74.3643 17.7156L74.3566 17.7125L74.35 17.7075L65.6688 12.4719C65.5115 12.3771 65.3335 12.3272 65.1523 12.3272C64.971 12.3272 64.793 12.3771 64.6357 12.4719L55.9497 17.7069L55.9432 17.7119L55.9355 17.715C55.8903 17.7466 55.8477 17.7819 55.8078 17.8206C55.7811 17.8437 55.7485 17.8625 55.7265 17.8881C55.686 17.9349 55.6494 17.9853 55.6172 18.0387C55.6 18.065 55.578 18.0869 55.5632 18.1144C55.5188 18.1963 55.4847 18.2839 55.4617 18.375C55.4534 18.4069 55.4545 18.4412 55.4492 18.4737C55.4368 18.5336 55.4292 18.5944 55.4266 18.6556V20.8837L47.7014 15.7912C47.7126 15.7365 47.7197 15.6809 47.7227 15.625V6.48375C47.72 6.4236 47.7124 6.36381 47.7002 6.305C47.6948 6.27125 47.696 6.23562 47.6877 6.2025C47.6646 6.11159 47.6305 6.0242 47.5862 5.9425C47.5654 5.91002 47.543 5.87873 47.5191 5.84875C47.4905 5.80228 47.4585 5.75819 47.4235 5.71687C47.3922 5.68777 47.3593 5.66064 47.3249 5.63562C47.2898 5.60231 47.2525 5.57161 47.2133 5.54375H47.2074L47.2032 5.53437L38.5166 0.299374C38.3594 0.204594 38.1813 0.154732 38.0001 0.154732C37.8189 0.154732 37.6408 0.204594 37.4835 0.299374L28.7969 5.53437L28.7898 5.54H28.7839C28.7445 5.56804 28.707 5.59895 28.6717 5.6325C28.6375 5.65733 28.6048 5.68425 28.5737 5.71312C28.5382 5.755 28.5058 5.79972 28.4769 5.84687C28.4535 5.87628 28.4315 5.90694 28.411 5.93875C28.3666 6.02065 28.3325 6.10825 28.3095 6.19937C28.3012 6.23125 28.3024 6.26562 28.297 6.29812C28.2846 6.35796 28.277 6.41881 28.2744 6.48V15.625C28.2774 15.6811 28.2845 15.7369 28.2958 15.7919L20.5723 20.8837V18.6562C20.5696 18.5961 20.562 18.5363 20.5498 18.4775C20.5444 18.4437 20.5456 18.4081 20.5373 18.375C20.5143 18.2839 20.4801 18.1963 20.4358 18.1144C20.4209 18.0862 20.3984 18.0637 20.3805 18.0375C20.3487 17.9847 20.3125 17.935 20.2725 17.8887C20.2481 17.8625 20.2173 17.8444 20.1905 17.8206C20.1509 17.7821 20.1084 17.747 20.0635 17.7156L20.0558 17.7125L20.0492 17.7075L11.3668 12.4719C11.2096 12.3771 11.0315 12.3272 10.8503 12.3272C10.669 12.3272 10.491 12.3771 10.3337 12.4719L1.64951 17.7069L1.64298 17.7119L1.63526 17.715C1.59012 17.7466 1.54743 17.7819 1.5076 17.8206C1.48088 17.8437 1.44823 17.8625 1.42626 17.8881C1.38574 17.9349 1.34918 17.9853 1.31701 18.0387C1.29979 18.065 1.27782 18.0869 1.26298 18.1144C1.21862 18.1963 1.1845 18.2839 1.16145 18.375C1.15313 18.4069 1.15432 18.4412 1.14898 18.4737C1.13655 18.5336 1.129 18.5944 1.12642 18.6556V27.7969C1.12639 27.9933 1.1766 28.186 1.27178 28.355C1.36696 28.5239 1.50359 28.6627 1.66732 28.7569L9.8106 33.4375V45.9612L1.64951 50.8812L1.64298 50.8862L1.63526 50.8894C1.59012 50.921 1.54743 50.9563 1.5076 50.995C1.48088 51.0181 1.44823 51.0369 1.42626 51.0625C1.38574 51.1092 1.34918 51.1597 1.31701 51.2131C1.29979 51.2394 1.27782 51.2612 1.26298 51.2887C1.21862 51.3707 1.1845 51.4583 1.16145 51.5494C1.15313 51.5812 1.15432 51.6156 1.14898 51.6481C1.13655 51.708 1.129 51.7688 1.12642 51.83V60.9712C1.12651 61.1678 1.1769 61.3606 1.27229 61.5296C1.36768 61.6985 1.50455 61.8372 1.66851 61.9312L10.3521 66.9206C10.4009 66.9456 10.4515 66.9665 10.5035 66.9831C10.5314 66.9937 10.5575 67.0094 10.586 67.0169C10.7588 67.0664 10.9411 67.0664 11.1139 67.0169C11.1424 67.0087 11.1685 66.9931 11.1964 66.9831C11.2484 66.9665 11.299 66.9456 11.3478 66.9206L18.721 62.6837L28.2804 69.3831V73.9162C28.2804 74.1126 28.3306 74.3054 28.4258 74.4743C28.5209 74.6433 28.6576 74.7821 28.8213 74.8762L37.5049 79.8656C37.5537 79.8906 37.6043 79.9115 37.6563 79.9281C37.6842 79.9387 37.7103 79.9544 37.7388 79.9619C37.9116 80.0114 38.0939 80.0114 38.2667 79.9619C38.2952 79.9537 38.3213 79.9381 38.3492 79.9281C38.4012 79.9115 38.4518 79.8906 38.5006 79.8656L47.1818 74.875C47.3456 74.7808 47.4822 74.642 47.5774 74.4731C47.6725 74.3042 47.7228 74.1114 47.7227 73.915V69.3819L57.2821 62.6825L64.6553 66.9194C64.7041 66.9444 64.7547 66.9653 64.8067 66.9819C64.8346 66.9925 64.8607 67.0081 64.8892 67.0156C65.062 67.0651 65.2443 67.0651 65.4171 67.0156C65.4456 67.0075 65.4717 66.9919 65.4996 66.9819C65.5516 66.9653 65.6022 66.9444 65.651 66.9194L74.3316 61.9312C74.4954 61.8371 74.632 61.6983 74.7272 61.5293C74.8224 61.3604 74.8726 61.1676 74.8725 60.9712V51.8306C74.8698 51.7705 74.8622 51.7107 74.85 51.6519C74.8446 51.6181 74.8458 51.5825 74.8375 51.5494C74.8145 51.4582 74.7804 51.3706 74.736 51.2887C74.7211 51.2606 74.6986 51.2381 74.6808 51.2119C74.6489 51.1591 74.6127 51.1093 74.5727 51.0631C74.5484 51.0369 74.5175 51.0187 74.4908 50.995C74.4511 50.9565 74.4086 50.9214 74.3637 50.89L74.356 50.8869L74.3494 50.8819L66.1884 45.9619V33.4375L74.331 28.7587C74.4948 28.6646 74.6314 28.5258 74.7266 28.3568C74.8218 28.1879 74.872 27.9951 74.8719 27.7987V18.6562C74.8696 18.5961 74.8624 18.5363 74.8506 18.4775ZM44.2891 64.9056L38.0001 68.5194L31.7111 64.9056L31.4451 64.7525L38.0001 60.8012L44.5551 64.75L44.2891 64.9056ZM18.4942 27.1481L11.8887 30.9431V24.295L18.4942 20.5V27.1481ZM10.8497 47.8556L17.4047 51.8069L17.1387 51.96L10.8497 55.5737L4.56067 51.96L4.29467 51.8069L10.8497 47.8556ZM19.446 50.5169L11.8887 45.9606V33.4375L18.7727 29.4819L28.2774 35.9919V43.9719L19.446 50.5169ZM30.3555 14.9756V8.3275L36.961 12.125V18.7712L30.3555 14.9756ZM45.6446 14.9756L39.0391 18.7712V12.125L45.6446 8.32875V14.9756ZM38.0001 31.4237L44.5551 35.375L44.2891 35.5281L38.0001 39.1419L31.7111 35.5281L31.4451 35.375L38.0001 31.4237ZM30.3555 37.2419L36.961 41.0375V47.6875L30.3555 43.8906V37.2419ZM39.0391 41.0375L45.6446 37.2419V43.8906L39.0391 47.6875V41.0375ZM47.7227 35.9919L57.2275 29.48L64.1114 33.4375V45.9612L56.5542 50.5175L47.7227 43.9719V35.9919ZM64.1102 24.295V30.9431L57.5059 27.1481V20.5L64.1102 24.295ZM57.5059 60.3225V53.6737L64.1114 57.4694V64.1175L57.5059 60.3225ZM71.4395 51.96L65.1505 55.5737L58.8609 51.96L58.5949 51.8069L65.1499 47.8556L71.7049 51.8069L71.4395 51.96ZM65.1505 14.6812L71.7055 18.6325L71.4395 18.7856L65.1505 22.3994L58.8609 18.7856L58.5949 18.6325L65.1505 14.6812ZM55.464 28.0775L46.6492 34.1169L39.0391 29.5294V21.2637L46.0098 17.2575L55.4272 23.465V27.7962C55.4278 27.8913 55.4402 27.9858 55.464 28.0775ZM38.0001 2.50937L44.5545 6.46125L38.2874 10.0625L38.0001 10.2275L37.7127 10.0625L31.4457 6.46062L38.0001 2.50937ZM29.9904 17.2594L36.961 21.2656V29.5294L29.3509 34.1169L20.5361 28.0775C20.5598 27.9858 20.5719 27.8913 20.5723 27.7962V23.465L29.9904 17.2594ZM10.8497 14.6812L17.4047 18.6325L17.1387 18.7856L10.8497 22.3994L4.56067 18.7856L4.29467 18.6325L10.8497 14.6812ZM3.20632 20.5L9.81179 24.2956V30.9431L3.20632 27.1481V20.5ZM3.20632 53.6744L9.81179 57.47V64.1181L3.20632 60.3225V53.6744ZM11.8899 57.47L18.4954 53.6744V60.3225L11.8899 64.1175V57.47ZM20.5147 61.3125C20.5519 61.2026 20.5719 61.0872 20.5741 60.9706V52.3581L29.3859 45.8256L36.961 50.1781V58.9069L28.7969 63.8269L28.7904 63.8319L28.7827 63.835C28.7376 63.8666 28.6949 63.9019 28.655 63.9406C28.6283 63.9637 28.5957 63.9825 28.5737 64.0081C28.5332 64.0549 28.4966 64.1053 28.4644 64.1587C28.4472 64.185 28.4253 64.2069 28.4104 64.2344C28.3661 64.3163 28.3319 64.4039 28.3089 64.495C28.3006 64.5269 28.3018 64.5612 28.2964 64.5937C28.284 64.6536 28.2764 64.7144 28.2739 64.7756V66.7544L20.5147 61.3125ZM30.3555 68.7919V66.6187L36.961 70.4144V77.0625L30.3555 73.2675V68.7919ZM39.0391 77.0625V70.415L45.6446 66.6194V73.2681L39.0391 77.0625ZM47.7227 64.7756C47.72 64.7155 47.7124 64.6557 47.7002 64.5969C47.6948 64.5631 47.696 64.5275 47.6877 64.4944C47.6647 64.4033 47.6305 64.3156 47.5862 64.2337C47.5713 64.2056 47.5488 64.1831 47.5309 64.1569C47.4991 64.1041 47.4629 64.0543 47.4229 64.0081C47.3985 63.9819 47.3677 63.9637 47.3409 63.94C47.3013 63.9015 47.2588 63.8664 47.2139 63.835L47.2062 63.8319L47.1996 63.8269L39.0391 58.9069V50.1781L46.6142 45.8256L55.4278 52.3581V60.9712C55.43 61.0878 55.4501 61.2033 55.4872 61.3131L47.7245 66.755L47.7227 64.7756ZM66.1884 64.1169V57.4694L72.7938 53.6737V60.3225L66.1884 64.1169ZM66.1884 30.9425V24.295L72.7938 20.5V27.1481L66.1884 30.9425Z" fill="url(#paint0_linear)"/>
<defs>
<linearGradient id="paint0_linear" x1="1.12642" y1="40.0769" x2="74.8725" y2="40.0769" gradientUnits="userSpaceOnUse">
<stop stop-color="#16DB60"/>
<stop offset="1" stop-color="#00C2F9"/>
</linearGradient>
</defs>
</svg>
